<svg id="base" xmlns="http://www.w3.org/2000/svg" viewBox="0 0 589.49 93.73"><defs><style>.cls-1{fill:#3b97d3;}.cls-2{fill:#e96359;}.cls-3{fill:#ecf0f1;}.cls-4{fill:#2c3e50;}</style></defs><title>medmagnet</title><circle class="cls-1" cx="45.15" cy="45.15" r="45.15"/><rect class="cls-2" x="15.2" y="36.05" width="18.58" height="18.58"/><rect class="cls-2" x="57.01" y="36.05" width="18.58" height="18.58"/><circle class="cls-2" cx="45.4" cy="54.63" r="30.2"/><circle class="cls-1" cx="45.4" cy="56.96" r="11.61"/><rect class="cls-3" x="15.2" y="17.47" width="18.58" height="18.58"/><rect class="cls-3" x="57.01" y="17.47" width="18.58" height="18.58"/><rect class="cls-1" x="33.79" y="17.47" width="23.23" height="39.49"/><circle class="cls-4" cx="45.4" cy="57.04" r="9.8"/><circle class="cls-2" cx="45.4" cy="22.33" r="9.8"/><rect class="cls-4" x="35.6" y="40.59" width="19.6" height="16.45"/><rect class="cls-2" x="35.6" y="22.73" width="19.6" height="18.29"/><path class="cls-2" d="M125.37,24.95h10.72l13.4,40.31L163,24.95h10.71l9.7,57.8H172.78l-6.2-36.5L154.3,82.75h-9.7l-12.17-36.5-6.35,36.5H115.36Z" transform="translate(-10.31 -5.75)"/><path class="cls-2" d="M233.83,64.47H199.37a11.47,11.47,0,0,0,4,7.25,12.51,12.51,0,0,0,8.27,2.69A14.3,14.3,0,0,0,222,70.21l9,4.24a21.33,21.33,0,0,1-8.09,7.09,25.32,25.32,0,0,1-11.2,2.3q-10.06,0-16.38-6.35A21.59,21.59,0,0,1,189,61.61a22.33,22.33,0,0,1,6.31-16.25,21.18,21.18,0,0,1,15.82-6.46q10.1,0,16.42,6.46t6.33,17.07ZM223.1,56a10.76,10.76,0,0,0-4.19-5.82A12.16,12.16,0,0,0,211.65,48a12.84,12.84,0,0,0-7.87,2.51A14,14,0,0,0,199.84,56H223.1Z" transform="translate(-10.31 -5.75)"/><path class="cls-2" d="M274.07,23.49h10.73V82.75H274.07V78.23a21,21,0,0,1-6.3,4.3,17.63,17.63,0,0,1-6.85,1.32,19,19,0,0,1-14.33-6.42,22.41,22.41,0,0,1-6-16q0-9.9,5.85-16.23A18.63,18.63,0,0,1,260.6,38.9a18.06,18.06,0,0,1,7.22,1.45,19.72,19.72,0,0,1,6.24,4.36V23.49ZM262.79,48.8a10.84,10.84,0,0,0-8.26,3.52,12.67,12.67,0,0,0-3.29,9,12.8,12.8,0,0,0,3.35,9.12A10.85,10.85,0,0,0,262.83,74a11,11,0,0,0,8.38-3.52,12.85,12.85,0,0,0,3.33-9.21,12.49,12.49,0,0,0-3.33-9A11.19,11.19,0,0,0,262.79,48.8Z" transform="translate(-10.31 -5.75)"/><path class="cls-1" d="M294.62,82.75l8.28-57.8h0.94l23.5,47.43L350.6,24.95h0.93l8.32,57.8h-5.66l-5.71-41.34L328,82.75h-1.48L305.87,41.1,300.2,82.75h-5.58Z" transform="translate(-10.31 -5.75)"/><path class="cls-1" d="M412.89,40V82.75h-5.42V75.4a23.57,23.57,0,0,1-7.76,6.33,21.68,21.68,0,0,1-24.91-4.46,22.07,22.07,0,0,1-6.42-16,21.66,21.66,0,0,1,6.48-15.8,21.14,21.14,0,0,1,15.6-6.56A20.17,20.17,0,0,1,400,41.14a21.69,21.69,0,0,1,7.49,6.72V40h5.42Zm-22,4.2a16.59,16.59,0,0,0-14.66,8.6,17.33,17.33,0,0,0,0,17.27,16.86,16.86,0,0,0,6.22,6.42,16.25,16.25,0,0,0,8.38,2.3,17.18,17.18,0,0,0,8.56-2.28,15.93,15.93,0,0,0,6.22-6.16,17.58,17.58,0,0,0,2.18-8.75,17,17,0,0,0-4.89-12.4A16.19,16.19,0,0,0,390.9,44.2Z" transform="translate(-10.31 -5.75)"/><path class="cls-1" d="M462.12,40h5.5V74.06q0,9-1.57,13.16a17.12,17.12,0,0,1-7.5,9.08,24.67,24.67,0,0,1-12.85,3.18,29.4,29.4,0,0,1-9.88-1.56,19.77,19.77,0,0,1-7.13-4.18,24.86,24.86,0,0,1-5.07-7.67h6a15.77,15.77,0,0,0,6.29,6.29,20.24,20.24,0,0,0,9.56,2,19.77,19.77,0,0,0,9.5-2.09,12.86,12.86,0,0,0,5.53-5.27q1.65-3.17,1.65-10.24v-2.2a20.83,20.83,0,0,1-7.59,6,22.53,22.53,0,0,1-20.61-.83,20.8,20.8,0,0,1-8-7.88,21.54,21.54,0,0,1-2.83-10.88,22.24,22.24,0,0,1,22.1-22.16,20.48,20.48,0,0,1,8.95,2,24.67,24.67,0,0,1,8,6.54V40Zm-16.23,4.2a17.39,17.39,0,0,0-8.68,2.26,16.37,16.37,0,0,0-6.29,6.25,17.09,17.09,0,0,0-2.28,8.63A15.56,15.56,0,0,0,433.36,73a16.77,16.77,0,0,0,12.22,4.6q7.58,0,12.2-4.56t4.62-12a17.35,17.35,0,0,0-2.12-8.62,15.46,15.46,0,0,0-6-6A16.72,16.72,0,0,0,445.89,44.2Z" transform="translate(-10.31 -5.75)"/><path class="cls-1" d="M479.41,40h5.5v7.66a23,23,0,0,1,7.31-6.58,18,18,0,0,1,8.72-2.18,15.16,15.16,0,0,1,8.51,2.44,14.52,14.52,0,0,1,5.48,6.56q1.77,4.13,1.77,12.85v22h-5.5V62.35a50.23,50.23,0,0,0-.61-9.86,10.83,10.83,0,0,0-3.67-6.39A11.07,11.07,0,0,0,499.84,44a13.57,13.57,0,0,0-8.94,3.3,15.46,15.46,0,0,0-5.21,8.17q-0.79,3.18-.79,11.63V82.75h-5.5V40Z" transform="translate(-10.31 -5.75)"/><path class="cls-1" d="M564.47,68.56L569.11,71a25.27,25.27,0,0,1-5.27,7.23,20.92,20.92,0,0,1-6.72,4.18,23.46,23.46,0,0,1-8.46,1.43q-10.46,0-16.36-6.86a23.13,23.13,0,0,1-5.9-15.5,22.86,22.86,0,0,1,5-14.5,20.42,20.42,0,0,1,17-8.09,21.09,21.09,0,0,1,17.46,8.29q4.64,5.86,4.72,14.62H532.06A17.4,17.4,0,0,0,536.82,74a15.18,15.18,0,0,0,11.37,4.76,18.27,18.27,0,0,0,6.35-1.13,16.71,16.71,0,0,0,5.25-3A25.65,25.65,0,0,0,564.47,68.56Zm0-11.51a18.25,18.25,0,0,0-3.21-7,15.19,15.19,0,0,0-5.57-4.24,17,17,0,0,0-7.28-1.61,15.67,15.67,0,0,0-10.82,4q-3.31,2.95-5,8.84h31.87Z" transform="translate(-10.31 -5.75)"/><path class="cls-1" d="M585.57,24.12h5.5V40h8.72v4.75h-8.72v38h-5.5v-38h-7.5V40h7.5V24.12Z" transform="translate(-10.31 -5.75)"/></svg>